<svg xmlns="http://www.w3.org/2000/svg" version="1.1" xmlns:xlink="http://www.w3.org/1999/xlink" xmlns:svgjs="http://svgjs.dev/svgjs" width="1500" height="1500" viewBox="0 0 1500 1500"><rect width="1500" height="1500" fill="#000000"></rect><g transform="matrix(0.6666666666666666,0,0,0.6666666666666666,249.27495010794047,162.47611336032384)"><svg viewBox="0 0 210 247" data-background-color="#f9f9f9" preserveAspectRatio="xMidYMid meet" height="1764" width="1500" xmlns="http://www.w3.org/2000/svg" xmlns:xlink="http://www.w3.org/1999/xlink"><g id="tight-bounds" transform="matrix(1,0,0,1,0.15226047733250425,-0.09999999999999432)"><svg viewBox="0 0 209.69547904533496 247.2" height="247.2" width="209.69547904533496"><g><svg></svg></g><g><svg viewBox="0 0 209.69547904533496 247.2" height="247.2" width="209.69547904533496"><g transform="matrix(1,0,0,1,0,47.215199999999996)"><svg viewBox="0 0 209.69547904533496 152.7696" height="152.7696" width="209.69547904533496"><g><svg viewBox="0 0 209.69547904533496 152.7696" height="152.7696" width="209.69547904533496"><g><svg viewBox="0 0 244.43135999999996 178.07575663842965" height="152.7696" width="209.69547904533496"><g><svg viewBox="0 0 244.43135999999996 178.07575663842965" height="178.07575663842965" width="244.43135999999996"><g id="textblocktransform"><svg viewBox="0 0 244.43135999999996 178.07575663842965" height="178.07575663842965" width="244.43135999999996" id="textblock"><g><svg viewBox="0 0 244.43135999999996 109.78862526821455" height="109.78862526821455" width="244.43135999999996"><g transform="matrix(1,0,0,1,0,0)"><svg width="244.43135999999996" viewBox="1.05 -26.9 60.980000000000004 27.389999999999997" height="109.78862526821455" data-palette-color="#030303"><path d="M20.53-26.42L26.81-6.23 31.88-26.42 36.4-26.42 28.71 0 25.05 0 18.63-20.02 12.38 0 8.72 0 1.05-26.42 5.54-26.42 10.74-6.64 16.89-26.42 20.53-26.42ZM62.03 0L57.3 0Q56.91-0.78 56.66-2.78L56.66-2.78Q53.51 0.49 49.14 0.49L49.14 0.49Q45.24 0.49 42.73-1.72 40.23-3.93 40.23-7.32L40.23-7.32Q40.23-11.45 43.37-13.73 46.51-16.02 52.19-16.02L52.19-16.02 56.59-16.02 56.59-18.09Q56.59-20.46 55.17-21.86 53.76-23.27 51-23.27L51-23.27Q48.58-23.27 46.95-22.05 45.31-20.83 45.31-19.09L45.31-19.09 40.77-19.09Q40.77-21.07 42.17-22.91 43.58-24.76 45.98-25.83 48.39-26.9 51.27-26.9L51.27-26.9Q55.83-26.9 58.42-24.62 61.01-22.34 61.11-18.33L61.11-18.33 61.11-6.18Q61.11-2.54 62.03-0.39L62.03-0.39 62.03 0ZM49.8-3.44L49.8-3.44Q51.93-3.44 53.83-4.54 55.73-5.64 56.59-7.4L56.59-7.4 56.59-12.82 53.05-12.82Q44.75-12.82 44.75-7.96L44.75-7.96Q44.75-5.83 46.16-4.64 47.58-3.44 49.8-3.44Z" opacity="1" transform="matrix(1,0,0,1,0,0)" fill="#ffffff" class="wordmark-text-0" data-fill-palette-color="primary" id="text-0"></path></svg></g></svg></g><g transform="matrix(1,0,0,1,0,135.70708476703356)"><svg viewBox="0 0 244.43135999999996 42.36867187139611" height="42.36867187139611" width="244.43135999999996"><g transform="matrix(1,0,0,1,0,0)"><svg width="244.43135999999996" viewBox="0.4 -37.5 286.12 49.6" height="42.36867187139611" data-palette-color="#030303"><path d="M9.05 0L0.4-35 5.3-35 11.6-6.35 18.2-34.3 23.35-34.3 29.9-6.35 36.25-35 41.1-35 32.5 0 27.35 0 20.7-27.7 14.2 0 9.05 0ZM52.8 0.5Q49.1 0.5 46.47-1.23 43.85-2.95 42.52-5.9 41.2-8.85 41.2-12.45L41.2-12.45Q41.2-15.9 42.42-18.78 43.65-21.65 45.97-23.33 48.3-25 51.5-25L51.5-25Q55.6-25 58.17-22.25 60.75-19.5 60.75-14.65L60.75-14.65Q60.75-13.8 60.55-12.3L60.55-12.3 45.65-12.3Q45.8-7.95 47.82-5.7 49.85-3.45 53.1-3.45L53.1-3.45Q54.65-3.45 56.37-3.83 58.1-4.2 59.4-4.9L59.4-4.9 59.8-1Q57.05 0.5 52.8 0.5L52.8 0.5ZM45.85-15.35L56.3-15.35Q56.3-17.85 55.07-19.43 53.85-21 51.55-21L51.55-21Q49.3-21 47.82-19.6 46.35-18.2 45.85-15.35L45.85-15.35ZM75.05-25Q78-25 80.17-23.25 82.35-21.5 83.5-18.57 84.65-15.65 84.65-12.25L84.65-12.25Q84.65-8.7 83.45-5.78 82.25-2.85 80.07-1.18 77.9 0.5 75.05 0.5L75.05 0.5Q73.05 0.5 71.32-0.25 69.6-1 68.45-2.4L68.45-2.4 68.25 0 64.3 0 64.3-37.5 68.65-37.5 68.65-22.15Q71.25-25 75.05-25L75.05-25ZM74.3-3.35Q76.95-3.35 78.57-5.93 80.2-8.5 80.2-12.25L80.2-12.25Q80.2-16.1 78.6-18.6 77-21.1 74.3-21.1L74.3-21.1Q71.6-21.1 69.92-18.82 68.25-16.55 68.25-12.25L68.25-12.25Q68.25-7.8 69.92-5.58 71.6-3.35 74.3-3.35L74.3-3.35ZM99.39 0L99.39-35 110.59-35Q114.94-35 118.32-32.9 121.69-30.8 123.59-26.85 125.49-22.9 125.49-17.5L125.49-17.5Q125.49-12.1 123.59-8.15 121.69-4.2 118.32-2.1 114.94 0 110.59 0L110.59 0 99.39 0ZM103.94-4.15L109.74-4.15Q114.99-4.15 117.72-7.65 120.44-11.15 120.44-17.5L120.44-17.5Q120.44-23.85 117.72-27.35 114.99-30.85 109.74-30.85L109.74-30.85 103.94-30.85 103.94-4.15ZM139.79 0.5Q136.09 0.5 133.46-1.23 130.84-2.95 129.51-5.9 128.19-8.85 128.19-12.45L128.19-12.45Q128.19-15.9 129.41-18.78 130.64-21.65 132.96-23.33 135.29-25 138.49-25L138.49-25Q142.59-25 145.16-22.25 147.74-19.5 147.74-14.65L147.74-14.65Q147.74-13.8 147.54-12.3L147.54-12.3 132.64-12.3Q132.79-7.95 134.81-5.7 136.84-3.45 140.09-3.45L140.09-3.45Q141.64-3.45 143.36-3.83 145.09-4.2 146.39-4.9L146.39-4.9 146.79-1Q144.04 0.5 139.79 0.5L139.79 0.5ZM132.84-15.35L143.29-15.35Q143.29-17.85 142.06-19.43 140.84-21 138.54-21L138.54-21Q136.29-21 134.81-19.6 133.34-18.2 132.84-15.35L132.84-15.35ZM156.94 0L148.79-24.5 153.44-24.5 159.14-5.15 164.74-24.5 169.39-24.5 161.29 0 156.94 0ZM182.13 0.5Q178.43 0.5 175.81-1.23 173.18-2.95 171.86-5.9 170.53-8.85 170.53-12.45L170.53-12.45Q170.53-15.9 171.76-18.78 172.98-21.65 175.31-23.33 177.63-25 180.83-25L180.83-25Q184.93-25 187.51-22.25 190.08-19.5 190.08-14.65L190.08-14.65Q190.08-13.8 189.88-12.3L189.88-12.3 174.98-12.3Q175.13-7.95 177.16-5.7 179.18-3.45 182.43-3.45L182.43-3.45Q183.98-3.45 185.71-3.83 187.43-4.2 188.73-4.9L188.73-4.9 189.13-1Q186.38 0.5 182.13 0.5L182.13 0.5ZM175.18-15.35L185.63-15.35Q185.63-17.85 184.41-19.43 183.18-21 180.88-21L180.88-21Q178.63-21 177.16-19.6 175.68-18.2 175.18-15.35L175.18-15.35ZM199.38 0.5Q196.58 0.5 195.23-1.2 193.88-2.9 193.88-5.4L193.88-5.4 193.88-37.5 198.23-37.5 198.23-8Q198.23-5.8 198.46-4.78 198.68-3.75 199.33-3.4 199.98-3.05 201.43-3.05L201.43-3.05 200.88 0.5 199.38 0.5ZM214.18 0.5Q210.88 0.5 208.48-1.18 206.08-2.85 204.8-5.75 203.53-8.65 203.53-12.25L203.53-12.25Q203.53-15.85 204.8-18.75 206.08-21.65 208.48-23.33 210.88-25 214.18-25L214.18-25Q217.43-25 219.83-23.33 222.23-21.65 223.48-18.75 224.73-15.85 224.73-12.25L224.73-12.25Q224.73-8.65 223.48-5.75 222.23-2.85 219.83-1.18 217.43 0.5 214.18 0.5L214.18 0.5ZM214.18-3.35Q217.08-3.35 218.68-5.7 220.28-8.05 220.28-12.25L220.28-12.25Q220.28-16.45 218.68-18.78 217.08-21.1 214.18-21.1L214.18-21.1Q211.18-21.1 209.58-18.78 207.98-16.45 207.98-12.25L207.98-12.25Q207.98-8 209.58-5.68 211.18-3.35 214.18-3.35L214.18-3.35ZM239.38-25Q242.33-25 244.55-23.33 246.78-21.65 247.95-18.75 249.13-15.85 249.13-12.25L249.13-12.25Q249.13-6.65 246.58-3.08 244.03 0.5 239.38 0.5L239.38 0.5Q237.48 0.5 235.85-0.18 234.23-0.85 233.08-2.15L233.08-2.15 233.08 12.1 228.73 12.1 228.73-24.5 232.08-24.5 232.48-21.55Q235.13-25 239.38-25L239.38-25ZM238.58-3.35Q241.43-3.35 243.05-5.7 244.68-8.05 244.68-12.25L244.68-12.25Q244.68-16.4 243.05-18.75 241.43-21.1 238.58-21.1L238.58-21.1Q237.08-21.1 235.68-20.1 234.28-19.1 233.4-17.1 232.53-15.1 232.53-12.25L232.53-12.25Q232.53-9.3 233.4-7.3 234.28-5.3 235.65-4.33 237.03-3.35 238.58-3.35L238.58-3.35ZM263.17 0.5Q259.47 0.5 256.85-1.23 254.22-2.95 252.9-5.9 251.57-8.85 251.57-12.45L251.57-12.45Q251.57-15.9 252.8-18.78 254.02-21.65 256.35-23.33 258.67-25 261.87-25L261.87-25Q265.97-25 268.55-22.25 271.12-19.5 271.12-14.65L271.12-14.65Q271.12-13.8 270.92-12.3L270.92-12.3 256.02-12.3Q256.17-7.95 258.2-5.7 260.22-3.45 263.47-3.45L263.47-3.45Q265.02-3.45 266.75-3.83 268.47-4.2 269.77-4.9L269.77-4.9 270.17-1Q267.42 0.5 263.17 0.5L263.17 0.5ZM256.22-15.35L266.67-15.35Q266.67-17.85 265.45-19.43 264.22-21 261.92-21L261.92-21Q259.67-21 258.2-19.6 256.72-18.2 256.22-15.35L256.22-15.35ZM275.02 0L275.02-24.5 278.57-24.5 279.12-20.4Q280.77-22.8 282.25-23.9 283.72-25 285.37-25L285.37-25Q286.02-25 286.52-24.85L286.52-24.85 286.07-19.9Q285.42-20.05 284.57-20.05L284.57-20.05Q282.92-20.05 281.47-19.23 280.02-18.4 279.37-17.3L279.37-17.3 279.37 0 275.02 0Z" opacity="1" transform="matrix(1,0,0,1,0,0)" fill="#ffffff" class="slogan-text-1" data-fill-palette-color="secondary" id="text-1"></path></svg></g></svg></g></svg></g></svg></g><g></g></svg></g></svg></g></svg></g><path d="M0 41.215L0 1 209.695 1 209.695 41.215 201.202 41.215 201.202 9.494 8.494 9.494 8.494 41.215 0 41.215M0 205.985L0 246.2 209.695 246.2 209.695 205.985 201.202 205.985 201.202 237.706 8.494 237.706 8.494 205.985 0 205.985" fill="#ffffff" stroke="transparent" data-fill-palette-color="tertiary"></path></svg></g><defs></defs></svg><rect width="209.69547904533496" height="247.2" fill="none" stroke="none" visibility="hidden"></rect></g></svg></g></svg>